<?xml version="1.0" encoding="UTF-8"?>
<svg width="370px" height="370px" viewBox="0 0 370 370" version="1.1" xmlns="http://www.w3.org/2000/svg" xmlns:xlink="http://www.w3.org/1999/xlink">
    <!-- Generator: Sketch 52.5 (67469) - http://www.bohemiancoding.com/sketch -->
    <title>spritesheet</title>
    <desc>Created with Sketch.</desc>
    <g id="spritesheet" stroke="none" stroke-width="1" fill="none" fill-rule="evenodd">
        <path d="M12.5,5 C10.25,5 8.40909091,6.86363636 8.40909091,9.13636364 L8.40909091,10.3863636 L5.90909091,10.3863636 C5.40909091,10.3863636 5,10.7954545 5,11.2954545 L5,22.2045455 C5,23.3409091 5.90909091,24.25 7.04545455,24.25 L17.9545455,24.25 C19.0909091,24.25 20,23.3409091 20,22.2045455 L20,11.2954545 C20,10.7954545 19.5909091,10.3863636 19.0909091,10.3863636 L16.5909091,10.3863636 L16.5909091,9.13636364 C16.5909091,6.86363636 14.75,5 12.5,5 Z M9.77272727,9.13636364 C9.77272727,7.61363636 11,6.36363636 12.5,6.36363636 C14,6.36363636 15.2272727,7.61363636 15.2272727,9.13636364 L15.2272727,10.3863636 L9.77272727,10.3863636 L9.77272727,9.13636364 Z M18.6363636,11.7727273 L18.6363636,22.2272727 C18.6363636,22.6136364 18.3409091,22.9090909 17.9545455,22.9090909 L7.04545455,22.9090909 C6.65909091,22.9090909 6.36363636,22.6136364 6.36363636,22.2272727 L6.36363636,11.7727273 L8.40909091,11.7727273 L8.40909091,13.6363636 C8.40909091,14.0227273 8.70454545,14.3181818 9.09090909,14.3181818 C9.47727273,14.3181818 9.77272727,14.0227273 9.77272727,13.6363636 L9.77272727,11.7727273 L15.2272727,11.7727273 L15.2272727,13.6363636 C15.2272727,14.0227273 15.5227273,14.3181818 15.9090909,14.3181818 C16.2954545,14.3181818 16.5909091,14.0227273 16.5909091,13.6363636 L16.5909091,11.7727273 L18.6363636,11.7727273 L18.6363636,11.7727273 Z" id="Shape" fill="#000000" fill-rule="nonzero"></path>
        <path d="M41.5,20 L40.71,20 L40.43,19.73 C41.41,18.59 42,17.11 42,15.5 C42,11.91 39.09,9 35.5,9 C31.91,9 29,11.91 29,15.5 C29,19.09 31.91,22 35.5,22 C37.11,22 38.59,21.41 39.73,20.43 L40,20.71 L40,21.5 L45,26.49 L46.49,25 L41.5,20 Z M35.5,20 C33.01,20 31,17.99 31,15.5 C31,13.01 33.01,11 35.5,11 C37.99,11 40,13.01 40,15.5 C40,17.99 37.99,20 35.5,20 Z" id="Shape" fill="#878787" fill-rule="nonzero"></path>
        <path d="M77.4650483,24 C77.760494,24 78,23.747957 78,23.4566483 L78,23.4566483 C78,23.1565634 77.7471261,22.9132966 77.4650483,22.9132966 L58.5349517,22.9132966 C58.239506,22.9132966 58,23.1653396 58,23.4566483 L58,23.4566483 C58,23.7567331 58.2528739,24 58.5349517,24 L77.4650483,24 Z M77.4650483,17.5433517 C77.760494,17.5433517 78,17.2913087 78,17 L78,17 C78,16.6999151 77.7471261,16.4566483 77.4650483,16.4566483 L58.5349517,16.4566483 C58.239506,16.4566483 58,16.7086913 58,17 L58,17 C58,17.3000849 58.2528739,17.5433517 58.5349517,17.5433517 L77.4650483,17.5433517 Z M58,10.5433517 C58,10.8434366 58.2528739,11.0867034 58.5349517,11.0867034 L77.4650483,11.0867034 C77.760494,11.0867034 78,10.8346604 78,10.5433517 L78,10.5433517 C78,10.2432669 77.7471261,10 77.4650483,10 L58.5349517,10 C58.239506,10 58,10.252043 58,10.5433517 L58,10.5433517 Z" id="Shape" stroke="#000000" fill="#000000"></path>
        <g id="Group-2" transform="translate(63.000000, 41.000000)" stroke="#000000" stroke-width="2">
            <path d="M12.174324,2.09008518 C14.9594379,4.87686542 14.9594379,9.39482733 12.174324,12.1816076 C9.38920998,14.9683878 4.87394945,14.9683878 2.08883548,12.1816076 C-0.696278493,9.39482733 -0.696278493,4.87686542 2.08883548,2.09008518 C4.87394945,-0.696695061 9.38920998,-0.696695061 12.174324,2.09008518 L12.174324,2.09008518 Z" id="Stroke-161-Copy-2"></path>
            <path d="M12.0996477,12.1127989 L17.7562504,17.7601591" id="Stroke-163-Copy-2"></path>
        </g>
        <g id="Material/Icons-black/arrow-back" transform="translate(89.000000, 4.000000)" fill="#000000">
            <polygon id="Shape" points="20 11 7.8 11 13.4 5.4 12 4 4 12 12 20 13.4 18.6 7.8 13 20 13"></polygon>
        </g>
        <g id="ic_history_black_24px" transform="translate(118.000000, 4.000000)">
            <polygon id="Shape" points="0 0 24 0 24 24 0 24"></polygon>
            <path d="M13,3 C8.03,3 4,7.03 4,12 L1,12 L4.89,15.89 L4.96,16.03 L9,12 L6,12 C6,8.13 9.13,5 13,5 C16.87,5 20,8.13 20,12 C20,15.87 16.87,19 13,19 C11.07,19 9.32,18.21 8.06,16.94 L6.64,18.36 C8.27,19.99 10.51,21 13,21 C17.97,21 22,16.97 22,12 C22,7.03 17.97,3 13,3 Z M12,8 L12,13 L16.28,15.54 L17,14.33 L13.5,12.25 L13.5,8 L12,8 Z" id="Shape" fill="#323A45" fill-rule="nonzero"></path>
        </g>
        <g id="ic_trending_up_black_24px" transform="translate(154.000000, 4.000000)">
            <polygon id="Shape" fill="#000000" fill-rule="nonzero" points="16 6 18.29 8.29 13.41 13.17 9.41 9.17 2 16.59 3.41 18 9.41 12 13.41 16 19.71 9.71 22 12 22 6"></polygon>
            <polygon id="Shape" points="0 0 24 0 24 24 0 24"></polygon>
        </g>
        <path d="M199.826858,15.5000977 L205.725306,9.60164953 C206.091565,9.23539069 206.091565,8.64124614 205.725306,8.2749873 C205.358656,7.90833757 204.766466,7.90833757 204.399816,8.2749873 L198.500195,14.1734355 L192.601747,8.2749873 C192.235098,7.90833757 191.641344,7.90833757 191.274694,8.2749873 C190.908435,8.64124614 190.908435,9.23539069 191.274694,9.60164953 L197.174706,15.5000977 L191.274694,21.3985459 C190.908435,21.7651956 190.908435,22.3589493 191.274694,22.725599 C191.458019,22.908533 191.697631,23.0003909 191.937243,23.0003909 C192.177247,23.0003909 192.418422,22.908533 192.601747,22.725599 L198.500195,16.8271508 L204.399816,22.725599 C204.583141,22.908533 204.822753,23.0003909 205.062757,23.0003909 C205.302369,23.0003909 205.541981,22.908533 205.725306,22.725599 C206.091565,22.3589493 206.091565,21.7651956 205.725306,21.3985459 L199.826858,15.5000977 Z" id="Fill-1" fill="#000000"></path>
        <path d="M234.333333,19.5658188 C233.657778,19.5658188 233.053333,19.8335564 232.591111,20.253012 L226.253333,16.5493083 C226.297778,16.3440428 226.333333,16.1387773 226.333333,15.9245872 C226.333333,15.7103971 226.297778,15.5051316 226.253333,15.2998661 L232.52,11.6318608 C233,12.0780901 233.631111,12.3547523 234.333333,12.3547523 C235.808889,12.3547523 237,11.1588577 237,9.67737617 C237,8.19589469 235.808889,7 234.333333,7 C232.857778,7 231.666667,8.19589469 231.666667,9.67737617 C231.666667,9.89156627 231.702222,10.0968318 231.746667,10.3020973 L225.48,13.9701026 C225,13.5238733 224.368889,13.2472111 223.666667,13.2472111 C222.191111,13.2472111 221,14.4431058 221,15.9245872 C221,17.4060687 222.191111,18.6019634 223.666667,18.6019634 C224.368889,18.6019634 225,18.3253012 225.48,17.8790718 L231.808889,21.5917001 C231.764444,21.7791165 231.737778,21.9754574 231.737778,22.1717983 C231.737778,23.6086568 232.902222,24.7777778 234.333333,24.7777778 C235.764444,24.7777778 236.928889,23.6086568 236.928889,22.1717983 C236.928889,20.7349398 235.764444,19.5658188 234.333333,19.5658188 L234.333333,19.5658188 Z" id="Shape" fill="#000000"></path>
        <path d="M268.540681,9.71903455 C267.554211,8.61055565 266.185858,8 264.687477,8 C262.580066,8 261.245844,9.24659747 260.4978,10.2922073 C260.303661,10.5636567 260.138671,10.8356864 260,11.0918538 C259.861329,10.8356864 259.696144,10.5636567 259.502151,10.2922073 C258.753912,9.24659747 257.419739,8 255.312523,8 C253.814093,8 252.445594,8.61055565 251.459124,9.71903455 C250.51821,10.7765895 250,12.1930302 250,13.7071115 C250,15.3553458 250.649655,16.8883846 252.044668,18.531686 C253.291488,20.0002598 255.08518,21.5140025 257.162074,23.2670831 C257.936045,23.920148 258.736383,24.5957006 259.588381,25.3341223 L259.613967,25.3562232 C259.724562,25.452026 259.862257,25.5 260,25.5 C260.137695,25.5 260.275389,25.452026 260.385838,25.3562232 L260.411424,25.3341223 C261.263617,24.5957006 262.063906,23.9203414 262.837926,23.2668897 C264.91482,21.5140025 266.708463,20.0002598 267.955137,18.531686 C269.35015,16.8883846 270,15.3553458 270,13.7071115 C270,12.1930302 269.481741,10.7765895 268.540681,9.71903455 Z M262.077822,22.3835305 C261.410638,22.9466925 260.72402,23.5260554 260,24.1494751 C259.27598,23.5262489 258.589314,22.9466925 257.921934,22.3835305 C253.857208,18.9527639 251.171869,16.6864297 251.171869,13.7071115 C251.171869,12.4756026 251.586125,11.3319654 252.338416,10.4864244 C253.099252,9.63159815 254.155351,9.16066025 255.312523,9.16066025 C256.919058,9.16066025 257.957627,10.1408862 258.545857,10.963214 C259.073589,11.7009103 259.349027,12.4444583 259.442874,12.7296905 C259.521438,12.9686898 259.74629,13.1304085 260,13.1304085 C260.253661,13.1304085 260.478562,12.9686898 260.557126,12.7296905 C260.650973,12.4444583 260.926363,11.7009103 261.453948,10.963214 C262.042373,10.1408862 263.080893,9.16066025 264.687477,9.16066025 C265.844454,9.16066025 266.900748,9.63159815 267.661584,10.4864244 C268.413826,11.3319654 268.828131,12.4756026 268.828131,13.7071115 C268.828131,16.6864297 266.142743,18.9527639 262.077822,22.3835305 Z" id="Fill-1-Copy-2" stroke="#000000" stroke-width="0.5" fill="#000000"></path>
        <path d="M14,33 C11.6,33 9.63636364,34.9362456 9.63636364,37.2975207 L9.63636364,38.596222 L6.96969697,38.596222 C6.43636364,38.596222 6,39.0212515 6,39.540732 L6,50.8748524 C6,52.05549 6.96969697,53 8.18181818,53 L19.8181818,53 C21.030303,53 22,52.05549 22,50.8748524 L22,39.540732 C22,39.0212515 21.5636364,38.596222 21.030303,38.596222 L18.3636364,38.596222 L18.3636364,37.2975207 C18.3636364,34.9362456 16.4,33 14,33 Z M11.0909091,37.2975207 C11.0909091,35.7154664 12.4,34.4167651 14,34.4167651 C15.6,34.4167651 16.9090909,35.7154664 16.9090909,37.2975207 L16.9090909,38.596222 L11.0909091,38.596222 L11.0909091,37.2975207 Z M20.5454545,40.0365998 L20.5454545,50.8984652 C20.5454545,51.2998819 20.230303,51.6068477 19.8181818,51.6068477 L8.18181818,51.6068477 C7.76969697,51.6068477 7.45454545,51.2998819 7.45454545,50.8984652 L7.45454545,40.0365998 L9.63636364,40.0365998 L9.63636364,41.9728453 C9.63636364,42.3742621 9.95151515,42.6812279 10.3636364,42.6812279 C10.7757576,42.6812279 11.0909091,42.3742621 11.0909091,41.9728453 L11.0909091,40.0365998 L16.9090909,40.0365998 L16.9090909,41.9728453 C16.9090909,42.3742621 17.2242424,42.6812279 17.6363636,42.6812279 C18.0484848,42.6812279 18.3636364,42.3742621 18.3636364,41.9728453 L18.3636364,40.0365998 L20.5454545,40.0365998 L20.5454545,40.0365998 Z" id="Shape" fill="#FFFFFF" fill-rule="nonzero"></path>
        <g id="Check-Icon" transform="translate(280.000000, 5.000000)">
            <path d="M11.0574822,0.477051567 C17.0185143,0.477051567 21.8484561,5.15356218 21.8484561,10.9199295 C21.8484561,16.6881955 17.0185143,21.3628074 11.0574822,21.3628074 C5.09890261,21.3628074 0.266508314,16.6881955 0.266508314,10.9199295 C0.266508314,5.15356218 5.09890261,0.477051567 11.0574822,0.477051567 Z" id="Combined-Shape-Copy" stroke="#C9A560" stroke-width="2" fill="#FFFFFF"></path>
            <path d="M5.24433157,11.7806452 C5.15407516,11.6954839 5.10894695,11.5677419 5.10894695,11.4825806 C5.10894695,11.3974194 5.15407516,11.2696774 5.24433157,11.1845161 L5.87612644,10.5883871 C6.05663926,10.4180645 6.32740849,10.4180645 6.50792131,10.5883871 L6.55304952,10.6309677 L9.0351008,13.1432258 C9.12535721,13.2283871 9.26074182,13.2283871 9.35099823,13.1432258 L15.3981777,7.22451613 L15.4433059,7.22451613 L15.4433059,7.22451613 C15.6238187,7.05419355 15.894588,7.05419355 16.0751008,7.22451613 L16.7068957,7.82064516 C16.8874085,7.99096774 16.8874085,8.24645161 16.7068957,8.41677419 L16.7068957,8.41677419 L9.48638285,15.4851613 C9.39612644,15.5703226 9.30587003,15.6129032 9.17048541,15.6129032 C9.0351008,15.6129032 8.94484439,15.5703226 8.85458798,15.4851613 L5.33458798,11.9083871 L5.24433157,11.7806452 L5.24433157,11.7806452 Z" id="Shape" fill="#C9A560"></path>
        </g>
        <g id="Check-Icon" transform="translate(316.000000, 5.000000)">
            <path d="M11.0574822,0.477051567 C17.0185143,0.477051567 21.8484561,5.15356218 21.8484561,10.9199295 C21.8484561,16.6881955 17.0185143,21.3628074 11.0574822,21.3628074 C5.09890261,21.3628074 0.266508314,16.6881955 0.266508314,10.9199295 C0.266508314,5.15356218 5.09890261,0.477051567 11.0574822,0.477051567 Z" id="Combined-Shape-Copy" stroke="#FF6161" stroke-width="2" fill="#FFFFFF"></path>
            <path d="M12,10 L15.9975267,10 C16.5511774,10 17,10.4438648 17,11 C17,11.5522847 16.544239,12 15.9975267,12 L12,12 L12,15.9975267 C12,16.5511774 11.5561352,17 11,17 C10.4477153,17 10,16.544239 10,15.9975267 L10,12 L6.00247329,12 C5.44882258,12 5,11.5561352 5,11 C5,10.4477153 5.45576096,10 6.00247329,10 L10,10 L10,6.00247329 C10,5.44882258 10.4438648,5 11,5 C11.5522847,5 12,5.45576096 12,6.00247329 L12,10 Z" id="Combined-Shape" fill="#FF6161" transform="translate(11.000000, 11.000000) rotate(45.000000) translate(-11.000000, -11.000000) "></path>
        </g>
        <path d="M267.69067,37.3752276 C266.909043,36.4884445 265.824831,36 264.637592,36 C262.967789,36 261.910621,36.997278 261.31791,37.8337658 C261.164084,38.0509254 261.033355,38.2685491 260.923479,38.4734831 C260.813603,38.2685491 260.68272,38.0509254 260.52901,37.8337658 C259.936144,36.997278 258.879015,36 257.209367,36 C256.022088,36 254.937761,36.4884445 254.156134,37.3752276 C253.410603,38.2212716 253,39.3544242 253,40.5656892 C253,41.8842766 253.514753,43.1107076 254.620088,44.4253488 C255.608004,45.6002078 257.029232,46.811202 258.674855,48.2136665 C259.288109,48.7361184 259.922255,49.2765605 260.597334,49.8672978 L260.617607,49.8849786 C260.705237,49.9616208 260.814339,50 260.923479,50 C261.032581,50 261.141683,49.9616208 261.229197,49.8849786 L261.24947,49.8672978 C261.924704,49.2765605 262.558811,48.7362731 263.172104,48.2135117 C264.817727,46.811202 266.238916,45.6002078 267.226716,44.4253488 C268.332051,43.1107076 268.846959,41.8842766 268.846959,40.5656892 C268.846959,39.3544242 268.436317,38.2212716 267.69067,37.3752276 Z M262.569837,47.5068244 C262.041195,47.957354 261.497155,48.4208444 260.923479,48.9195801 C260.349804,48.4209991 259.805725,47.957354 259.276928,47.5068244 C256.056251,44.7622111 253.928528,42.9491437 253.928528,40.5656892 C253.928528,39.5804821 254.256763,38.6655723 254.852839,37.9891395 C255.455686,37.3052785 256.292484,36.9285282 257.209367,36.9285282 C258.482301,36.9285282 259.305209,37.712709 259.771292,38.3705712 C260.189439,38.9607282 260.407682,39.5555666 260.482042,39.7837524 C260.544292,39.9749518 260.722453,40.1043268 260.923479,40.1043268 C261.124467,40.1043268 261.302667,39.9749518 261.364917,39.7837524 C261.439277,39.5555666 261.657481,38.9607282 262.075512,38.3705712 C262.541749,37.712709 263.364619,36.9285282 264.637592,36.9285282 C265.55432,36.9285282 266.391272,37.3052785 266.994119,37.9891395 C267.590157,38.6655723 267.91843,39.5804821 267.91843,40.5656892 C267.91843,42.9491437 265.790669,44.7622111 262.569837,47.5068244 Z" id="Fill-1" fill="#A5A5A5"></path>
        <g id="Quotation" transform="translate(349.000000, 10.000000)" fill="#424242" fill-rule="nonzero">
            <path d="M5.22857143,0.878151261 C4.72857143,1.03221289 4.25714286,1.24789916 3.8,1.52521008 C3.35714286,1.81792717 2.97142857,2.14145658 2.64285714,2.49579832 C2.31428571,2.85014006 2.05714286,3.25070028 1.87142857,3.66666667 C1.68571429,4.09803922 1.58571429,4.52941176 1.58571429,4.96078431 C1.58571429,5.22268908 1.62857143,5.45378151 1.72857143,5.65406162 C1.82857143,5.85434174 1.94285714,5.94677871 2.08571429,5.94677871 C2.22857143,5.94677871 2.34285714,5.91596639 2.44285714,5.85434174 C2.54285714,5.79271709 2.64285714,5.73109244 2.74285714,5.65406162 C2.84285714,5.57703081 2.95714286,5.51540616 3.08571429,5.45378151 C3.21428571,5.39215686 3.38571429,5.36134454 3.6,5.36134454 C4.04285714,5.36134454 4.42857143,5.54621849 4.74285714,5.93137255 C5.07142857,6.31652661 5.22857143,6.80952381 5.22857143,7.39495798 C5.22857143,8.01120448 5.01428571,8.53501401 4.57142857,8.95098039 C4.12857143,9.36694678 3.6,9.58263305 2.95714286,9.58263305 C2.54285714,9.58263305 2.15714286,9.49019608 1.81428571,9.28991597 C1.45714286,9.08963585 1.14285714,8.82773109 0.871428571,8.47338936 C0.6,8.11904762 0.385714286,7.73389356 0.228571429,7.28711485 C0.0714285714,6.84033613 0,6.34733894 0,5.82352941 C0,5.0070028 0.142857143,4.25210084 0.414285714,3.55882353 C0.7,2.86554622 1.07142857,2.26470588 1.55714286,1.75630252 C2.04285714,1.24789916 2.58571429,0.831932773 3.22857143,0.523809524 C3.87142857,0.215686275 4.52857143,0.0462184874 5.22857143,0 L5.22857143,0.878151261 Z" id="Shape"></path>
            <path d="M11.8571429,0.878151261 C11.3571429,1.03221289 10.8857143,1.24789916 10.4285714,1.52521008 C9.98571429,1.81792717 9.6,2.14145658 9.27142857,2.49579832 C8.94285714,2.85014006 8.68571429,3.25070028 8.5,3.66666667 C8.31428571,4.09803922 8.21428571,4.52941176 8.21428571,4.96078431 C8.21428571,5.22268908 8.25714286,5.45378151 8.35714286,5.65406162 C8.45714286,5.85434174 8.57142857,5.94677871 8.71428571,5.94677871 C8.85714286,5.94677871 8.97142857,5.91596639 9.07142857,5.85434174 C9.17142857,5.79271709 9.27142857,5.73109244 9.37142857,5.65406162 C9.47142857,5.57703081 9.58571429,5.51540616 9.71428571,5.45378151 C9.84285714,5.39215686 10.0142857,5.36134454 10.2285714,5.36134454 C10.6714286,5.36134454 11.0571429,5.54621849 11.3714286,5.93137255 C11.7,6.31652661 11.8571429,6.80952381 11.8571429,7.39495798 C11.8571429,8.01120448 11.6428571,8.53501401 11.2,8.95098039 C10.7571429,9.36694678 10.2285714,9.58263305 9.58571429,9.58263305 C9.17142857,9.58263305 8.78571429,9.49019608 8.44285714,9.28991597 C8.08571429,9.08963585 7.77142857,8.82773109 7.5,8.47338936 C7.22857143,8.13445378 7.01428571,7.73389356 6.85714286,7.28711485 C6.7,6.84033613 6.62857143,6.34733894 6.62857143,5.82352941 C6.62857143,5.0070028 6.77142857,4.25210084 7.04285714,3.55882353 C7.32857143,2.86554622 7.7,2.26470588 8.18571429,1.75630252 C8.65714286,1.24789916 9.21428571,0.831932773 9.85714286,0.523809524 C10.5,0.215686275 11.1571429,0.0462184874 11.8571429,0 L11.8571429,0.878151261 Z" id="Shape"></path>
        </g>
        <g id="ic_search_white_24px" transform="translate(99.000000, 38.000000)">
            <path d="M16.5,14 L15.71,14 L15.43,13.73 C16.41,12.59 17,11.11 17,9.5 C17,5.91 14.09,3 10.5,3 C6.91,3 4,5.91 4,9.5 C4,13.09 6.91,16 10.5,16 C12.11,16 13.59,15.41 14.73,14.43 L15,14.71 L15,15.5 L20,20.49 L21.49,19 L16.5,14 Z M10.5,14 C8.01,14 6,11.99 6,9.5 C6,7.01 8.01,5 10.5,5 C12.99,5 15,7.01 15,9.5 C15,11.99 12.99,14 10.5,14 Z" id="Shape" fill="#323A45" fill-rule="nonzero"></path>
            <polygon id="Shape" points="0 0 24 0 24 24 0 24"></polygon>
        </g>
        <path d="M154.540681,40.7190346 C153.554211,39.6105557 152.185858,39 150.687477,39 C148.580066,39 147.245844,40.2465975 146.4978,41.2922073 C146.303661,41.5636567 146.138671,41.8356864 146,42.0918538 C145.861329,41.8356864 145.696144,41.5636567 145.502151,41.2922073 C144.753912,40.2465975 143.419739,39 141.312523,39 C139.814093,39 138.445594,39.6105557 137.459124,40.7190346 C136.51821,41.7765895 136,43.1930302 136,44.7071115 C136,46.3553458 136.649655,47.8883846 138.044668,49.531686 C139.291488,51.0002598 141.08518,52.5140025 143.162074,54.2670831 C143.936045,54.920148 144.736383,55.5957006 145.588381,56.3341223 C145.724562,56.452026 145.862257,56.5 146,56.5 C146.137695,56.5 146.275389,56.452026 146.385838,56.3562232 C147.263617,55.5957006 148.063906,54.9203414 148.837926,54.2668897 C150.91482,52.5140025 152.708463,51.0002598 153.955137,49.531686 C155.35015,47.8883846 156,46.3553458 156,44.7071115 C156,43.1930302 155.481741,41.7765895 154.540681,40.7190346 Z" id="Fill-1-Copy-2" fill="#F24C38"></path>
        <g id="Group-32" transform="translate(178.000000, 36.000000)">
            <g id="Group-13">
                <g id="Group-3">
                    <path d="M12.4878049,0.524390244 C19.1085111,0.524390244 24.4756098,5.8915377 24.4756098,12.5121951 C24.4756098,19.1329013 19.1085111,24.5 12.4878049,24.5 C5.86714745,24.5 0.5,19.1329013 0.5,12.5121951 C0.5,5.8915377 5.86714745,0.524390244 12.4878049,0.524390244" id="Fill-1" fill="#EEE0C6"></path>
                    <path d="M12.4499998,1 C18.7736834,1 23.8999996,6.12636283 23.8999996,12.4499998 C23.8999996,18.7736834 18.7736834,23.8999996 12.4499998,23.8999996 C6.12636283,23.8999996 1,18.7736834 1,12.4499998 C1,6.12636283 6.12636283,1 12.4499998,1" id="Fill-1" stroke="#C9A560" stroke-dasharray="4"></path>
                </g>
                <path d="M12.5,21.8970588 C7.31838262,21.8970588 3.10294118,17.6814304 3.10294118,12.5 C3.10294118,7.31856955 7.31838262,3.10294118 12.5,3.10294118 C17.6816641,3.10294118 21.8970588,7.31861629 21.8970588,12.5 C21.8971056,17.6814772 17.6817109,21.8970588 12.5,21.8970588" id="Fill-4" fill="#C9A560"></path>
            </g>
            <path d="M11.7695907,10.7428958 L10.6494596,11.1028417 C10.5862264,10.7334235 10.2971603,10.1556157 9.48416184,10.1556157 C8.87892968,10.1556157 8.48146379,10.5629229 8.48146379,11.0081191 C8.48146379,11.3775372 8.70729668,11.6711773 9.1770291,11.7658999 L10.0713274,11.9458728 C11.2366251,12.1826793 11.8599239,12.9783491 11.8599239,13.9255751 C11.8599239,14.9580514 11.0378921,16 9.54739505,16 C7.84913168,16 7.09936647,14.8538566 7,13.8971583 L8.15626442,13.5751015 C8.21046431,14.2381597 8.65309678,14.834912 9.55642836,14.834912 C10.2248937,14.834912 10.5952597,14.4844384 10.5952597,14.0108254 C10.5952597,13.6224628 10.3152269,13.3193505 9.81839452,13.2151556 L8.92409626,13.0257104 C7.90333158,12.8078484 7.24389953,12.1163735 7.24389953,11.1028417 C7.24389953,9.90933694 8.26466421,9 9.47512852,9 C11.0288588,9 11.6250577,9.98511502 11.7695907,10.7428958 Z M12.9413432,15.839773 L12.9413432,14.5209325 L14.1990687,14.5209325 L14.1990687,15.839773 L12.9413432,15.839773 Z M12.9413432,13.1552829 L12.9413432,11.8364424 L16.4418397,11.8364424 L16.4418397,13.1552829 L12.9413432,13.1552829 Z M12.9413432,10.4707928 L12.9413432,9.15195227 L18,9.15195227 L18,10.4707928 L12.9413432,10.4707928 Z" id="STY--I-Copy-4" fill="#FFFFFF"></path>
        </g>
        <g id="Looks" transform="translate(211.000000, 31.000000)">
            <circle id="Oval-" cx="17" cy="17" r="17"></circle>
            <path d="M19.447922,10.3756607 C18.2686713,11.3202174 16.6217038,11.3202174 15.4427316,10.3756607 L13.8085783,9.06666667 L6.8,11.8700423 L8.36151656,16.5548009 L11.2729072,16.048572 L10.6321993,26.0666667 L24.2581758,26.0666667 L23.6177465,16.048572 L26.5288585,16.5548009 L28.090375,11.8700423 L21.0817968,9.06666667 L19.447922,10.3756607 Z M26.7010836,12.5144412 L25.7750517,15.2925367 L22.4156531,14.7084479 L23.0704287,24.9523921 L11.8199463,24.9523921 L12.4750005,14.7084479 L9.11532332,15.2925367 L8.18929149,12.5144412 L13.6189427,10.3425111 L14.7460314,11.2451431 C15.5091006,11.8563924 16.467725,12.1931819 17.4451527,12.1931819 C18.4229287,12.1931819 19.381553,11.8563924 20.1443436,11.2451431 L21.2714324,10.3425111 L26.7010836,12.5144412 Z" id="Fill-1" fill="#000000"></path>
        </g>
        <g id="Looks-Copy" transform="translate(286.000000, 32.000000)">
            <circle id="Oval-" cx="22.5" cy="22.5" r="22.5"></circle>
            <path d="M25.7398968,13.7324922 C24.1791237,14.9826407 21.9993138,14.9826407 20.4389095,13.7324922 L18.2760595,12 L9,15.7103501 L11.0667131,21.9107659 L14.9200242,21.2407571 L14.0720284,34.5 L32.1064091,34.5 L31.2587821,21.2407571 L35.1117245,21.9107659 L37.1784376,15.7103501 L27.9023781,12 L25.7398968,13.7324922 Z M35.3396694,16.563231 L34.114039,20.2401221 L29.6677762,19.4670634 L30.5343909,33.0252248 L15.6440466,33.0252248 L16.5110301,19.4670634 L12.0643985,20.2401221 L10.8387682,16.563231 L18.0250712,13.6886176 L19.5168063,14.8832777 C20.5267508,15.6922841 21.7955183,16.1380349 23.0891727,16.1380349 C24.3832879,16.1380349 25.6520555,15.6922841 26.6616313,14.8832777 L28.1533664,13.6886176 L35.3396694,16.563231 Z" id="Fill-1" fill="#000000"></path>
        </g>
    </g>
</svg>